# xmcd
#
# Track frame offsets:
#	150
#	15150
#	32090
#	44124
#	57956
#	71205
#	87095
#	104217
#	121476
#	134540
#	151926
#	167870
#	178125
#	198644
#	234368
#	250998
#	270334
#	287664
#	308730
#	321512
#	337149
#
# Disc length: 4681 seconds
#
# Revision: 1
# Processed by: cddbd v1.4PL0 Copyright (c) Steve Scherf et al.
# Submitted via: EasyCDDAExtractor 5.0.6
#
DISCID=3f124715
DTITLE=Various Artist - Vitto&Pride
DYEAR=2003
DGENRE=Compilation
TTITLE0=Gloria Gaynor - I Will Survive
TTITLE1=Village People - Y.M.C.A.
TTITLE2=Raffaella Carrà - Tuca Tuca
TTITLE3=Max Raabe - Sex Bomb
TTITLE4=Cher - The Shoop Shoop Song (It'sIn His Kiss)
TTITLE5=Weather Girls - It's Raining Men
TTITLE6=Gloria Gaynor - Can't Take My Eyes Off To You
TTITLE7=Donna Summer - Hot Stuff
TTITLE8=Al Bano e Romina Power - Il ballo del QUA QUA
TTITLE9=Kylie Minogue - Can't Get You Out Of My Head
TTITLE10=Las Ketchup - Asereje
TTITLE11=Dave Stewart e Barbara Gaskin - It's My Party
TTITLE12=NuovaCompagnia di Canto Popolare - Rosario
TTITLE13=NuovaCompagnia di Canto Popolare - La Scena delle Ingiurie
TTITLE14=Paola e Chiara - Festival
TTITLE15=Patty Pravo - Pensiero Stupendo
TTITLE16=Raffaella Carrà - Tanti Auguri
TTITLE17=Renato Zero - Triangolo
TTITLE18=Archies - Sugar Sugar
TTITLE19=Village People - Macho Man
TTITLE20=Miquel Brown -So Many Men, So Little Time
EXTD=
EXTT0=
EXTT1=
EXTT2=
EXTT3=
EXTT4=
EXTT5=
EXTT6=
EXTT7=
EXTT8=
EXTT9=
EXTT10=
EXTT11=
EXTT12=
EXTT13=
EXTT14=
EXTT15=
EXTT16=
EXTT17=
EXTT18=
EXTT19=
EXTT20=
PLAYORDER=
